<?xml version="1.0" encoding="iso-8859-1"?>
<!-- Generator: Adobe Illustrator 16.0.0, SVG Export Plug-In . SVG Version: 6.00 Build 0)  -->
<!DOCTYPE svg PUBLIC "-//W3C//DTD SVG 1.1//EN" "http://www.w3.org/Graphics/SVG/1.1/DTD/svg11.dtd">
<svg version="1.1" id="Capa_1" xmlns="http://www.w3.org/2000/svg" xmlns:xlink="http://www.w3.org/1999/xlink" x="0px" y="0px"
	 width="186.201px" height="186.201px" viewBox="0 0 186.201 186.201" style="enable-background:new 0 0 186.201 186.201;"
	 xml:space="preserve">
<g>
	<path d="M182.109,23.091C166.748,9.067,132.323,0,94.406,0C58.211,0,26.278,8.109,4.477,22.831
		c-0.822,0.567-1.942,1.335-2.167,11.535C1.772,59.037,9.3,123.015,90.593,184.286l2.627,1.915l2.409-1.892
		c73.547-55.438,86.829-113.215,88.188-142.721C183.83,41.423,184.51,25.263,182.109,23.091z M93.135,178.617
		C1.734,109.089,7.763,35.964,8.918,27.146C29.692,13.527,59.984,6.053,94.406,6.053c35.311,0,68.381,8.346,82.88,20.844
		C178.315,34.832,184.675,109.024,93.135,178.617z M172.972,30.358c1.111,11.127,3.836,79.127-79.825,143.708
		c-15.456-11.946-27.96-23.986-38.083-35.742c16.459-8.612,26.397-21.202,26.397-21.202c11.99,3.948,26.232-11.981,26.232-11.981
		c5.497-3.522,4.09,10.994,4.09,10.994c-1.685,1.845-3.948,6.644-3.948,6.644l-6.91-0.283c-4.66,2.104-3.667,12.253-3.667,12.253
		c5.78,0,14.112-8.039,14.112-8.039c6.483-2.529,7.188-5.354,7.188-5.354v-15.652c0.142-9.746-0.97-9.995-3.659-10.16
		c-3.878-0.23-15.51-0.137-15.51-0.137c-1.975-3.232-2.669-16.916-1.549-22.425c3.715-18.297,17.059-12.129,17.059-12.129
		c1.549,15.229,17.206,15.793,17.206,15.793c1.271,11.842,7.406,6.96,10.161,5.922c3.995-1.498,3.108-3.945,3.108-3.945
		c-0.845-5.071-7.619-24.568-10.16-31.874c-2.258-6.487-8.14-13.243-11.709-16.502c0,0,0.88,2.553,0.567,3.236
		c-0.852,1.835-1.555,1.138-1.555,1.138c-13.819-11.983-26.936-8.605-26.936-8.605c6.765,0.422,9.31,5.78,9.31,5.78
		c-9.31-4.516-10.994-3.632-15.655-1.974c-11.831,4.193-23.132,3.806-23.132,3.806c4.09,5.509,11.142,5.37,11.142,5.37
		c-5.217,2.196-7.566,2.137-9.31,2.669c-8.461,2.681-10.719,9.177-10.719,9.177c6.207,0-4.793,14.248-4.793,14.248
		c7.616-4.232,9.212-2.622,9.025-2.542c-8.322,3.381-10.719,9.587-10.719,9.587c-5.243,11.184-17.002,20.18-23.309,24.424
		C11.643,63.642,12.562,37.944,13.254,30.831C32.931,18.441,62.311,11.36,94.412,11.36
		C127.736,11.354,158.821,18.944,172.972,30.358z"/>
</g>
<g>
</g>
<g>
</g>
<g>
</g>
<g>
</g>
<g>
</g>
<g>
</g>
<g>
</g>
<g>
</g>
<g>
</g>
<g>
</g>
<g>
</g>
<g>
</g>
<g>
</g>
<g>
</g>
<g>
</g>
</svg>
